<svg xmlns="http://www.w3.org/2000/svg" xmlns:xlink="http://www.w3.org/1999/xlink" width="500" zoomAndPan="magnify" viewBox="0 0 375 374.999991" height="500" preserveAspectRatio="xMidYMid meet" version="1.0"><defs><clipPath id="8feb628f3c"><path d="M 76 38 L 225 38 L 225 187 L 76 187 Z M 76 38 " clip-rule="nonzero"/></clipPath><clipPath id="bd8e07b28a"><path d="M 64.070312 151.5625 L 189.734375 25.902344 L 236.765625 72.933594 L 111.101562 198.59375 Z M 64.070312 151.5625 " clip-rule="nonzero"/></clipPath><clipPath id="a215beacf3"><path d="M 169.875 45.757812 C 180.796875 34.835938 200.179688 36.511719 213.167969 49.496094 C 226.15625 62.484375 227.828125 81.867188 216.90625 92.792969 L 130.878906 178.816406 C 119.957031 189.742188 100.574219 188.066406 87.585938 175.078125 C 74.597656 162.09375 72.925781 142.710938 83.847656 131.785156 Z M 169.875 45.757812 " clip-rule="nonzero"/></clipPath><clipPath id="7a7389b96c"><path d="M 0 0 L 149 0 L 149 149 L 0 149 Z M 0 0 " clip-rule="nonzero"/></clipPath><clipPath id="e0c76ca98d"><path d="M -11.929688 113.5625 L 113.734375 -12.097656 L 160.765625 34.933594 L 35.101562 160.59375 Z M -11.929688 113.5625 " clip-rule="nonzero"/></clipPath><clipPath id="e692e69a51"><path d="M 93.875 7.757812 C 104.796875 -3.164062 124.179688 -1.488281 137.167969 11.496094 C 150.15625 24.484375 151.828125 43.867188 140.90625 54.792969 L 54.878906 140.816406 C 43.957031 151.742188 24.574219 150.066406 11.585938 137.078125 C -1.402344 124.09375 -3.074219 104.710938 7.847656 93.785156 Z M 93.875 7.757812 " clip-rule="nonzero"/></clipPath><clipPath id="52b5a29f1f"><rect x="0" width="149" y="0" height="149"/></clipPath><clipPath id="d639f17241"><path d="M 76 38 L 225 38 L 225 187 L 76 187 Z M 76 38 " clip-rule="nonzero"/></clipPath><clipPath id="d8c109b314"><path d="M 64.070312 151.5625 L 189.757812 25.875 L 236.957031 73.074219 L 111.269531 198.761719 Z M 64.070312 151.5625 " clip-rule="nonzero"/></clipPath><clipPath id="2ed8b9cd1c"><path d="M 64.078125 151.554688 L 190.144531 25.492188 L 238.34375 73.691406 L 112.277344 199.757812 Z M 64.078125 151.554688 " clip-rule="nonzero"/></clipPath><clipPath id="3cd59ba975"><path d="M 169.867188 45.765625 C 180.789062 34.84375 200.167969 36.519531 213.15625 49.503906 C 226.140625 62.488281 227.8125 81.871094 216.894531 92.792969 L 130.878906 178.804688 C 119.957031 189.726562 100.574219 188.054688 87.589844 175.070312 C 74.605469 162.082031 72.929688 142.703125 83.851562 131.78125 Z M 169.867188 45.765625 " clip-rule="nonzero"/></clipPath><clipPath id="dbb05a1a90"><path d="M 155 39 L 299 39 L 299 186 L 155 186 Z M 155 39 " clip-rule="nonzero"/></clipPath><clipPath id="85d47cf360"><path d="M 262.75 197.699219 L 142.640625 72.894531 L 190.828125 26.515625 L 310.941406 151.320312 Z M 262.75 197.699219 " clip-rule="nonzero"/></clipPath><clipPath id="ca263b6a12"><path d="M 162.191406 93.207031 C 151.417969 82.015625 153.476562 62.5625 166.78125 49.753906 C 180.089844 36.949219 199.609375 35.636719 210.378906 46.832031 L 291.4375 131.054688 C 302.210938 142.25 300.152344 161.703125 286.847656 174.511719 C 273.539062 187.316406 254.019531 188.625 243.25 177.433594 Z M 162.191406 93.207031 " clip-rule="nonzero"/></clipPath><clipPath id="5a1029f205"><path d="M 0 0 L 144 0 L 144 147 L 0 147 Z M 0 0 " clip-rule="nonzero"/></clipPath><clipPath id="c3593b562a"><path d="M 107.75 158.699219 L -12.359375 33.894531 L 35.828125 -12.484375 L 155.941406 112.320312 Z M 107.75 158.699219 " clip-rule="nonzero"/></clipPath><clipPath id="ce86c3a48e"><path d="M 7.191406 54.207031 C -3.582031 43.015625 -1.523438 23.5625 11.78125 10.753906 C 25.089844 -2.050781 44.609375 -3.363281 55.378906 7.832031 L 136.4375 92.054688 C 147.210938 103.25 145.152344 122.703125 131.847656 135.511719 C 118.539062 148.316406 99.019531 149.625 88.25 138.433594 Z M 7.191406 54.207031 " clip-rule="nonzero"/></clipPath><clipPath id="4d3bd9fe08"><rect x="0" width="144" y="0" height="147"/></clipPath><clipPath id="4e642f35d4"><path d="M 191 192 L 341 192 L 341 342 L 191 342 Z M 191 192 " clip-rule="nonzero"/></clipPath><clipPath id="2bdde2da13"><path d="M 187.171875 255.816406 L 254.445312 188.542969 L 344.578125 278.679688 L 277.308594 345.949219 Z M 187.171875 255.816406 " clip-rule="nonzero"/></clipPath><clipPath id="7b8b2e4edf"><path d="M 194.164062 248.824219 L 247.453125 195.535156 C 251.3125 191.675781 257.574219 191.675781 261.4375 195.535156 L 337.398438 271.5 C 341.261719 275.359375 341.261719 281.621094 337.398438 285.484375 L 284.113281 338.769531 C 280.25 342.632812 273.988281 342.632812 270.128906 338.769531 L 194.164062 262.808594 C 190.304688 258.945312 190.304688 252.683594 194.164062 248.824219 Z M 194.164062 248.824219 " clip-rule="nonzero"/></clipPath><clipPath id="6f10bb0add"><path d="M 0 0 L 150 0 L 150 150 L 0 150 Z M 0 0 " clip-rule="nonzero"/></clipPath><clipPath id="1af208010d"><path d="M -3.828125 63.816406 L 63.445312 -3.457031 L 153.578125 86.679688 L 86.308594 153.949219 Z M -3.828125 63.816406 " clip-rule="nonzero"/></clipPath><clipPath id="53a44cbec0"><path d="M 3.164062 56.824219 L 56.453125 3.535156 C 60.3125 -0.324219 66.574219 -0.324219 70.4375 3.535156 L 146.398438 79.5 C 150.261719 83.359375 150.261719 89.621094 146.398438 93.484375 L 93.113281 146.769531 C 89.25 150.632812 82.988281 150.632812 79.128906 146.769531 L 3.164062 70.808594 C -0.695312 66.945312 -0.695312 60.683594 3.164062 56.824219 Z M 3.164062 56.824219 " clip-rule="nonzero"/></clipPath><clipPath id="8dbdeec2c4"><rect x="0" width="150" y="0" height="150"/></clipPath><clipPath id="706575a858"><path d="M 35 192 L 185 192 L 185 342 L 35 342 Z M 35 192 " clip-rule="nonzero"/></clipPath><clipPath id="826c927efb"><path d="M 98.210938 346.035156 L 30.941406 278.761719 L 121.863281 187.839844 L 189.136719 255.109375 Z M 98.210938 346.035156 " clip-rule="nonzero"/></clipPath><clipPath id="df57e62f82"><path d="M 91.21875 339.039062 L 37.933594 285.753906 C 34.070312 281.890625 34.070312 275.628906 37.933594 271.769531 L 114.648438 195.054688 C 118.507812 191.191406 124.773438 191.191406 128.632812 195.054688 L 181.917969 248.339844 C 185.78125 252.203125 185.78125 258.464844 181.917969 262.328125 L 105.207031 339.039062 C 101.34375 342.902344 95.082031 342.902344 91.21875 339.039062 Z M 91.21875 339.039062 " clip-rule="nonzero"/></clipPath><clipPath id="4099104d3d"><path d="M 0 0 L 150 0 L 150 150 L 0 150 Z M 0 0 " clip-rule="nonzero"/></clipPath><clipPath id="4841a90116"><path d="M 63.210938 154.035156 L -4.058594 86.761719 L 86.863281 -4.160156 L 154.136719 63.109375 Z M 63.210938 154.035156 " clip-rule="nonzero"/></clipPath><clipPath id="217d0a8bcb"><path d="M 56.21875 147.039062 L 2.933594 93.753906 C -0.929688 89.890625 -0.929688 83.628906 2.933594 79.769531 L 79.648438 3.054688 C 83.507812 -0.808594 89.773438 -0.808594 93.632812 3.054688 L 146.917969 56.339844 C 150.78125 60.203125 150.78125 66.464844 146.917969 70.328125 L 70.207031 147.039062 C 66.34375 150.902344 60.082031 150.902344 56.21875 147.039062 Z M 56.21875 147.039062 " clip-rule="nonzero"/></clipPath><clipPath id="17d0fdaf2a"><rect x="0" width="150" y="0" height="150"/></clipPath></defs><rect x="-37.5" width="450" fill="#ffffff" y="-37.499999" height="449.999989" fill-opacity="1"/><rect x="-37.5" width="450" fill="#000000" y="-37.499999" height="449.999989" fill-opacity="1"/><g clip-path="url(#8feb628f3c)"><g clip-path="url(#bd8e07b28a)"><g clip-path="url(#a215beacf3)"><g transform="matrix(1, 0, 0, 1, 76, 38)"><g clip-path="url(#52b5a29f1f)"><g clip-path="url(#7a7389b96c)"><g clip-path="url(#e0c76ca98d)"><g clip-path="url(#e692e69a51)"><path fill="#05d08c" d="M -11.929688 113.5625 L 113.734375 -12.097656 L 160.765625 34.933594 L 35.101562 160.59375 Z M -11.929688 113.5625 " fill-opacity="1" fill-rule="nonzero"/></g></g></g></g></g></g></g></g><g clip-path="url(#d639f17241)"><g clip-path="url(#d8c109b314)"><g clip-path="url(#2ed8b9cd1c)"><g clip-path="url(#3cd59ba975)"><path stroke-linecap="butt" transform="matrix(0.53033, -0.53033, 0.53033, 0.53033, 64.077583, 151.556181)" fill="none" stroke-linejoin="miter" d="M 199.4797 -0.000897781 C 220.074187 -0.000897781 236.764854 19.849653 236.768537 44.33691 C 236.768537 68.820484 220.074187 88.674717 199.4797 88.674717 L 37.290755 88.671035 C 16.696269 88.671035 -0.00176399 68.820484 -0.00176399 44.33691 C 0.00191886 19.849653 16.692586 -0.000897781 37.287072 -0.000897781 Z M 199.4797 -0.000897781 " stroke="#000000" stroke-width="2" stroke-opacity="1" stroke-miterlimit="4"/></g></g></g></g><g clip-path="url(#dbb05a1a90)"><g clip-path="url(#85d47cf360)"><g clip-path="url(#ca263b6a12)"><g transform="matrix(1, 0, 0, 1, 155, 39)"><g clip-path="url(#4d3bd9fe08)"><g clip-path="url(#5a1029f205)"><g clip-path="url(#c3593b562a)"><g clip-path="url(#ce86c3a48e)"><path fill="#05d08c" d="M 107.75 158.699219 L -12.359375 33.894531 L 35.828125 -12.484375 L 155.941406 112.320312 Z M 107.75 158.699219 " fill-opacity="1" fill-rule="nonzero"/></g></g></g></g></g></g></g></g><g clip-path="url(#4e642f35d4)"><g clip-path="url(#2bdde2da13)"><g clip-path="url(#7b8b2e4edf)"><g transform="matrix(1, 0, 0, 1, 191, 192)"><g clip-path="url(#8dbdeec2c4)"><g clip-path="url(#6f10bb0add)"><g clip-path="url(#1af208010d)"><g clip-path="url(#53a44cbec0)"><path fill="#05d08c" d="M -3.828125 63.816406 L 63.445312 -3.457031 L 153.316406 86.414062 L 86.042969 153.6875 Z M -3.828125 63.816406 " fill-opacity="1" fill-rule="nonzero"/></g></g></g></g></g></g></g></g><g clip-path="url(#706575a858)"><g clip-path="url(#826c927efb)"><g clip-path="url(#df57e62f82)"><g transform="matrix(1, 0, 0, 1, 35, 192)"><g clip-path="url(#17d0fdaf2a)"><g clip-path="url(#4099104d3d)"><g clip-path="url(#4841a90116)"><g clip-path="url(#217d0a8bcb)"><path fill="#05d08c" d="M 63.210938 154.035156 L -4.058594 86.761719 L 86.601562 -3.898438 L 153.871094 63.375 Z M 63.210938 154.035156 " fill-opacity="1" fill-rule="nonzero"/></g></g></g></g></g></g></g></g></svg>